<svg width="68" height="68" viewBox="0 0 68 68" fill="none" xmlns="http://www.w3.org/2000/svg">
<rect width="68" height="68" rx="20" fill="#06BA63"/>
<g opacity="0.84992" clip-path="url(#clip0_2046_58056)">
<path opacity="0.4" d="M15.7522 22.5156H39.5494C40.6503 22.5156 41.5438 23.4086 41.5438 24.5089C41.5438 25.6092 40.6503 26.5022 39.5494 26.5022H15.7522C14.6513 26.5022 13.7578 25.6092 13.7578 24.5089C13.7578 23.4086 14.6513 22.5156 15.7522 22.5156Z" fill="white"/>
<mask id="mask0_2046_58056" style="mask-type:alpha" maskUnits="userSpaceOnUse" x="37" y="14" width="18" height="22">
<path fill-rule="evenodd" clip-rule="evenodd" d="M37.4219 35.4653V14H54.583V35.4653H37.4219Z" fill="white"/>
</mask>
<g mask="url(#mask0_2046_58056)">
<path d="M38.7688 14.1797C39.0202 14.1797 39.268 14.2497 39.4871 14.3861L53.7394 23.3623C54.1308 23.61 54.3698 24.039 54.3698 24.502C54.3698 24.9651 54.1308 25.3941 53.7394 25.6418L39.4871 34.618C39.0723 34.8782 38.5479 34.8944 38.1187 34.6556C37.6876 34.4187 37.4219 33.9682 37.4219 33.4783V15.5258C37.4219 15.0358 37.6876 14.5853 38.1187 14.3484C38.3216 14.2353 38.5461 14.1797 38.7688 14.1797Z" fill="white"/>
</g>
<path opacity="0.4" d="M52.3151 46.0569H28.5179C27.4169 46.0569 26.5234 45.1639 26.5234 44.0636C26.5234 42.9632 27.4169 42.0703 28.5179 42.0703H52.3151C53.4159 42.0703 54.3095 42.9632 54.3095 44.0636C54.3095 45.1639 53.4159 46.0569 52.3151 46.0569Z" fill="white"/>
<mask id="mask1_2046_58056" style="mask-type:alpha" maskUnits="userSpaceOnUse" x="13" y="33" width="18" height="22">
<path fill-rule="evenodd" clip-rule="evenodd" d="M30.5127 33.1094V54.5746H13.3516V33.1094H30.5127Z" fill="white"/>
</mask>
<g mask="url(#mask1_2046_58056)">
<path d="M29.1634 54.3948C28.912 54.3948 28.6642 54.3248 28.4451 54.1884L14.1929 45.2122C13.8014 44.9645 13.5625 44.5355 13.5625 44.0724C13.5625 43.6094 13.8014 43.1804 14.1929 42.9327L28.4451 33.9566C28.86 33.6962 29.3844 33.6801 29.8136 33.9188C30.2446 34.1557 30.5104 34.6062 30.5104 35.0963V53.0487C30.5104 53.5387 30.2446 53.9892 29.8136 54.2261C29.6106 54.3391 29.3861 54.3948 29.1634 54.3948Z" fill="white"/>
</g>
</g>
<defs>
<clipPath id="clip0_2046_58056">
<rect width="42" height="41" fill="white" transform="translate(13 14)"/>
</clipPath>
</defs>
</svg>
