<svg width="24" height="25" viewBox="0 0 24 25" fill="none" xmlns="http://www.w3.org/2000/svg">
<rect width="24" height="24" transform="translate(0 0.25)" fill="#1F1F26"/>
<rect y="0.25" width="24" height="24" rx="4" fill="url(#paint0_linear_2072_58657)"/>
<path d="M14.018 7.38497V7.38281H14.5807L14.7863 7.42387C14.9234 7.45053 15.0478 7.48547 15.1596 7.52869C15.2714 7.57191 15.3796 7.62234 15.4842 7.67997C15.5888 7.73759 15.6837 7.79631 15.7688 7.8561C15.8532 7.91517 15.929 7.97784 15.996 8.04412C16.0624 8.11111 16.1659 8.1284 16.3066 8.09598C16.4473 8.06357 16.5987 8.01854 16.761 7.96091C16.9234 7.90329 17.0839 7.83845 17.2426 7.76641C17.4013 7.69437 17.4979 7.64863 17.5326 7.62918C17.5665 7.60902 17.5845 7.59821 17.5867 7.59676L17.5888 7.59352L17.5996 7.58812L17.6105 7.58272L17.6213 7.57731L17.6321 7.57191L17.6343 7.56867L17.6375 7.56651L17.6408 7.56435L17.6429 7.5611L17.6537 7.55786L17.6646 7.5557L17.6624 7.57191L17.6592 7.58812L17.6537 7.60433L17.6483 7.62054L17.6429 7.63134L17.6375 7.64215L17.6321 7.65836C17.6285 7.66916 17.6249 7.68356 17.6213 7.70158C17.6177 7.71959 17.5834 7.79162 17.5185 7.91769C17.4536 8.04376 17.3724 8.17162 17.275 8.30129C17.1776 8.43096 17.0904 8.52892 17.0132 8.5952C16.9353 8.6622 16.8837 8.70902 16.8584 8.73567C16.8332 8.76304 16.8025 8.78825 16.7665 8.81131L16.7124 8.84697L16.7015 8.85237L16.6907 8.85778L16.6886 8.86102L16.6853 8.86318L16.6821 8.86534L16.6799 8.86858L16.6691 8.87399L16.6583 8.87939L16.6561 8.88263L16.6528 8.88479L16.6496 8.88695L16.6474 8.89019L16.6453 8.89344L16.642 8.8956L16.6388 8.89776L16.6366 8.901H16.6907L16.9937 8.83617C17.1957 8.79294 17.3886 8.74072 17.5726 8.67949L17.8647 8.58223L17.8972 8.57143L17.9134 8.56603L17.9243 8.56062L17.9351 8.55522L17.9459 8.54982L17.9567 8.54441L17.9784 8.54117L18 8.53901V8.56062L17.9946 8.56278L17.9892 8.56603L17.987 8.56927L17.9838 8.57143L17.9805 8.57359L17.9784 8.57683L17.9762 8.58007L17.9729 8.58223L17.9697 8.5844L17.9675 8.58764L17.9654 8.59088L17.9621 8.59304L17.9567 8.60385L17.9513 8.61465L17.9481 8.61681C17.9466 8.61897 17.9008 8.6802 17.8106 8.80051C17.7205 8.92153 17.6718 8.98276 17.6646 8.9842C17.6574 8.98636 17.6472 8.99717 17.6343 9.01662C17.622 9.03678 17.5455 9.11711 17.4049 9.25758C17.2642 9.39806 17.1264 9.52304 16.9915 9.63254C16.8559 9.74276 16.7874 9.87818 16.7859 10.0388C16.7838 10.1988 16.7755 10.3796 16.761 10.5813C16.7466 10.783 16.7196 11.0009 16.6799 11.235C16.6402 11.4691 16.5789 11.7339 16.4959 12.0292C16.413 12.3246 16.312 12.6127 16.193 12.8937C16.0739 13.1746 15.9495 13.4267 15.8197 13.6501C15.6898 13.8734 15.5708 14.0625 15.4626 14.2174C15.3544 14.3722 15.2444 14.5181 15.1326 14.655C15.0207 14.7919 14.8794 14.946 14.7084 15.1175C14.5367 15.2882 14.4429 15.3818 14.4271 15.3984C14.4105 15.4143 14.3398 15.4733 14.215 15.5756C14.0909 15.6786 13.9574 15.7816 13.8146 15.8847C13.6725 15.987 13.5419 16.0723 13.4229 16.1408C13.3039 16.2092 13.1603 16.2873 12.9922 16.3752C12.8249 16.4638 12.6438 16.546 12.4491 16.6216C12.2543 16.6972 12.0487 16.7675 11.8323 16.8323C11.6159 16.8971 11.4067 16.9476 11.2047 16.9836C11.0027 17.0196 10.7737 17.0502 10.5176 17.0754L10.1335 17.1133V17.1187H9.43012V17.1133L9.33814 17.1079C9.27683 17.1043 9.22633 17.1006 9.18665 17.0971C9.14699 17.0935 8.99729 17.0736 8.7376 17.0376C8.47791 17.0016 8.27412 16.9656 8.12624 16.9296C7.97837 16.8935 7.75834 16.8251 7.46619 16.7243C7.17403 16.6234 6.92408 16.5215 6.71632 16.4185C6.50929 16.3162 6.37944 16.2513 6.32678 16.224C6.27484 16.1973 6.21641 16.1642 6.15149 16.1245L6.0541 16.0651L6.05195 16.0619L6.04869 16.0597L6.04545 16.0576L6.04328 16.0543L6.03246 16.0489L6.02164 16.0435L6.01949 16.0403L6.01623 16.0381L6.01298 16.0359L6.01082 16.0327L6.00867 16.0295L6.00541 16.0273H6V16.0057L6.01082 16.0078L6.02164 16.0111L6.07033 16.0165C6.1028 16.0201 6.19117 16.0255 6.33544 16.0327C6.47972 16.0399 6.633 16.0399 6.79531 16.0327C6.95762 16.0255 7.12354 16.0093 7.29306 15.9841C7.46258 15.9589 7.66276 15.9156 7.8936 15.8544C8.12444 15.7932 8.33653 15.7204 8.52986 15.6361C8.72246 15.5511 8.85952 15.4877 8.94104 15.446C9.02183 15.4049 9.14518 15.3285 9.31109 15.2169L9.55996 15.0494L9.56213 15.0461L9.56537 15.044L9.56863 15.0418L9.57078 15.0386L9.57295 15.0353L9.57619 15.0332L9.57945 15.031L9.58161 15.0278L9.59243 15.0245L9.60325 15.0224L9.60541 15.0116L9.60866 15.0008L9.61191 14.9986L9.61407 14.9954L9.5275 14.99C9.4698 14.9864 9.41389 14.9828 9.35978 14.9792C9.30568 14.9756 9.22092 14.9593 9.1055 14.9305C8.99009 14.9017 8.86565 14.8585 8.73219 14.8009C8.59874 14.7432 8.46889 14.6748 8.34265 14.5956C8.21642 14.5163 8.12516 14.4504 8.06889 14.3978C8.01335 14.3459 7.94121 14.2725 7.85248 14.1774C7.76448 14.0816 7.68801 13.9832 7.62308 13.8824C7.55816 13.7815 7.49613 13.6652 7.43698 13.5334L7.34716 13.3367L7.34175 13.3205L7.33634 13.3043L7.33309 13.2935L7.33093 13.2827L7.34716 13.2848L7.36339 13.2881L7.48242 13.3043C7.56177 13.3151 7.68621 13.3187 7.85573 13.3151C8.02525 13.3115 8.14247 13.3043 8.20739 13.2935C8.27232 13.2827 8.312 13.2755 8.32642 13.2719L8.34806 13.2665L8.37511 13.2611L8.40216 13.2557L8.40433 13.2524L8.40757 13.2503L8.41083 13.2481L8.41298 13.2449L8.39134 13.2395L8.3697 13.234L8.34806 13.2286L8.32642 13.2232L8.30478 13.2178C8.29036 13.2142 8.26511 13.207 8.22904 13.1962C8.19297 13.1854 8.09559 13.1458 7.93688 13.0774C7.77819 13.0089 7.65194 12.9423 7.55816 12.8775C7.46415 12.8124 7.3745 12.7413 7.28981 12.6646C7.20541 12.5868 7.11272 12.4867 7.01172 12.3642C6.91073 12.2417 6.82057 12.0995 6.74121 11.9374C6.66186 11.7753 6.60235 11.6204 6.56267 11.4727C6.52315 11.3259 6.49708 11.1758 6.48477 11.0243L6.46528 10.7974L6.4761 10.7995L6.48693 10.8028L6.49775 10.8082L6.50857 10.8136L6.51939 10.819L6.53021 10.8244L6.69793 10.9C6.80975 10.9505 6.94861 10.9937 7.11452 11.0297C7.28044 11.0657 7.37962 11.0855 7.41208 11.0891L7.46078 11.0945H7.55816L7.55601 11.0913L7.55275 11.0891L7.5495 11.087L7.54734 11.0837L7.54519 11.0805L7.54193 11.0783L7.53868 11.0762L7.53652 11.0729L7.5257 11.0675L7.51488 11.0621L7.51272 11.0589L7.50947 11.0567L7.50622 11.0546L7.50406 11.0513L7.49324 11.0459L7.48242 11.0405L7.48026 11.0373C7.4781 11.0358 7.44708 11.0128 7.3872 10.9681C7.32804 10.9227 7.26601 10.864 7.20108 10.792C7.13616 10.7199 7.07124 10.6443 7.00631 10.5651C6.94127 10.4856 6.88334 10.4007 6.83318 10.3111C6.78269 10.2211 6.72931 10.1065 6.67304 9.96751C6.6175 9.8292 6.5753 9.68981 6.54644 9.54934C6.51759 9.40886 6.50136 9.2702 6.49775 9.13332C6.49414 8.99645 6.49775 8.87939 6.50857 8.78214C6.51939 8.68489 6.54103 8.57503 6.57349 8.45257C6.60595 8.33011 6.65285 8.20044 6.71416 8.06357L6.80613 7.85826L6.81154 7.84205L6.81695 7.82584L6.82021 7.82368L6.82236 7.82044L6.82453 7.8172L6.82777 7.81504L6.83103 7.8172L6.83318 7.82044L6.83535 7.82368L6.83859 7.82584L6.84185 7.828L6.844 7.83125L6.84617 7.83449L6.84941 7.83665L6.85482 7.84745L6.86023 7.85826L6.86349 7.86042L6.86564 7.86366L7.01172 8.02575C7.10911 8.1338 7.22453 8.25447 7.35798 8.38773C7.49144 8.521 7.56538 8.59016 7.5798 8.5952C7.59424 8.60096 7.61226 8.61753 7.6339 8.64491C7.65555 8.67156 7.72769 8.73532 7.85032 8.83617C7.97296 8.93702 8.13346 9.05408 8.33183 9.18735C8.53021 9.32061 8.75023 9.45209 8.99188 9.58175C9.23355 9.71142 9.49324 9.82848 9.77096 9.93294C10.0487 10.0374 10.2435 10.1058 10.3553 10.1382C10.4671 10.1707 10.6583 10.2121 10.9288 10.2625C11.1993 10.3129 11.4031 10.3454 11.5401 10.3598C11.6772 10.3742 11.771 10.3824 11.8215 10.3846L11.8972 10.3868L11.8951 10.3706L11.8918 10.3544L11.8702 10.2193C11.8557 10.1292 11.8485 10.0032 11.8485 9.84109C11.8485 9.679 11.8611 9.52953 11.8864 9.39266C11.9116 9.25578 11.9495 9.11711 12 8.97664C12.0505 8.83617 12.0999 8.72342 12.1482 8.63842C12.1973 8.55414 12.2615 8.45797 12.3408 8.34991C12.4202 8.24186 12.523 8.1302 12.6492 8.01494C12.7755 7.89968 12.9197 7.79702 13.0821 7.70698C13.2444 7.61694 13.3941 7.54849 13.5311 7.50167C13.6682 7.45485 13.7836 7.42423 13.8774 7.40983C13.9711 7.39542 14.018 7.38713 14.018 7.38497Z" fill="white"/>
<defs>
<linearGradient id="paint0_linear_2072_58657" x1="6.60606" y1="3.10568" x2="17.6822" y2="4.80752" gradientUnits="userSpaceOnUse">
<stop offset="0.0614511" stop-color="#FF8840"/>
<stop offset="1" stop-color="#FF5604"/>
</linearGradient>
</defs>
</svg>
